<?xml version="1.0" encoding="UTF-8" standalone="no"?><!DOCTYPE svg PUBLIC "-//W3C//DTD SVG 1.1//EN" "http://www.w3.org/Graphics/SVG/1.1/DTD/svg11.dtd"><svg width="100%" height="100%" viewBox="0 0 169 33" version="1.1" xmlns="http://www.w3.org/2000/svg" xmlns:xlink="http://www.w3.org/1999/xlink" xml:space="preserve" style="fill-rule:evenodd;clip-rule:evenodd;stroke-linejoin:round;stroke-miterlimit:1.41421;"><g><g><path d="M48.159,10.651c0,1.203 0.493,2.022 1.479,2.457c0.986,0.434 2.181,0.668 3.584,0.702l3.76,0c0.602,0 1.337,0.016 2.206,0.05c0.869,0.033 1.771,0.125 2.707,0.275c0.936,0.151 1.863,0.376 2.783,0.677c0.919,0.301 1.746,0.735 2.481,1.304c0.735,0.568 1.329,1.278 1.78,2.13c0.451,0.852 0.677,1.897 0.677,3.133c0,1.204 -0.226,2.223 -0.677,3.058c-0.451,0.836 -1.036,1.529 -1.755,2.081c-0.718,0.551 -1.529,0.986 -2.431,1.303c-0.903,0.318 -1.822,0.552 -2.758,0.702c-0.935,0.151 -1.829,0.242 -2.682,0.276c-0.852,0.033 -1.579,0.05 -2.18,0.05l0,-3.66c0.534,0 1.286,0.017 2.256,0.051c0.969,0.033 1.93,-0.051 2.882,-0.251c0.953,-0.201 1.78,-0.568 2.482,-1.103c0.702,-0.535 1.053,-1.37 1.053,-2.507c0,-0.835 -0.201,-1.504 -0.602,-2.005c-0.401,-0.501 -0.911,-0.886 -1.529,-1.153c-0.618,-0.267 -1.287,-0.434 -2.005,-0.501c-0.719,-0.067 -1.396,-0.1 -2.031,-0.1l-6.417,0c-1.303,0 -2.489,-0.168 -3.559,-0.502c-1.069,-0.334 -1.988,-0.81 -2.757,-1.429c-0.769,-0.618 -1.362,-1.361 -1.78,-2.23c-0.418,-0.869 -0.626,-1.839 -0.626,-2.908c0,-1.303 0.317,-2.39 0.952,-3.259c0.635,-0.869 1.454,-1.562 2.456,-2.08c1.003,-0.518 2.114,-0.894 3.334,-1.128c1.22,-0.234 2.415,-0.351 3.585,-0.351l14.789,0l0,3.81l-16.394,0.1c-0.3,0.034 -0.735,0.092 -1.303,0.176c-0.568,0.083 -1.128,0.225 -1.679,0.426c-0.552,0.2 -1.036,0.493 -1.454,0.877c-0.418,0.385 -0.627,0.894 -0.627,1.529Z" style="fill:#fff;fill-rule:nonzero;"/><path d="M86.259,3.883c1.705,0 3.309,0.318 4.813,0.953c1.504,0.635 2.824,1.512 3.96,2.632c1.137,1.119 2.031,2.44 2.682,3.96c0.652,1.521 0.978,3.15 0.978,4.888l0,12.483l-3.71,0l0,-12.483c0,-1.203 -0.225,-2.339 -0.677,-3.409c-0.451,-1.069 -1.069,-1.997 -1.855,-2.782c-0.785,-0.786 -1.712,-1.404 -2.782,-1.855c-1.069,-0.451 -2.206,-0.677 -3.409,-0.677c-1.203,0 -2.331,0.226 -3.384,0.677c-1.052,0.451 -1.972,1.069 -2.757,1.855c-0.785,0.785 -1.412,1.713 -1.88,2.782c-0.468,1.07 -0.702,2.206 -0.702,3.409c0,1.203 0.234,2.331 0.702,3.384c0.468,1.053 1.095,1.972 1.88,2.757c0.785,0.786 1.705,1.412 2.757,1.88c1.053,0.468 2.181,0.702 3.384,0.702l0,3.76c-1.704,0 -3.317,-0.326 -4.837,-0.978c-1.521,-0.651 -2.85,-1.545 -3.986,-2.682c-1.136,-1.136 -2.03,-2.465 -2.682,-3.985c-0.652,-1.521 -0.978,-3.133 -0.978,-4.838c0,-1.704 0.326,-3.309 0.978,-4.813c0.652,-1.503 1.546,-2.824 2.682,-3.96c1.136,-1.136 2.465,-2.03 3.986,-2.682c1.52,-0.652 3.133,-0.978 4.837,-0.978Z" style="fill:#fff;fill-rule:nonzero;"/><path d="M118.344,13.81l4.311,0l-7.37,14.688l0,0.251l-12.232,-24.765l4.161,0l8.071,16.443l0,-0.251l3.059,-6.366Z" style="fill:#fff;fill-rule:nonzero;"/><path d="M139.499,28.999c-1.738,0 -3.367,-0.325 -4.888,-0.977c-1.52,-0.652 -2.849,-1.546 -3.985,-2.682c-1.137,-1.136 -2.031,-2.465 -2.682,-3.986c-0.652,-1.52 -0.978,-3.15 -0.978,-4.887c0,-1.705 0.326,-3.318 0.978,-4.838c0.651,-1.521 1.545,-2.849 2.682,-3.986c1.136,-1.136 2.465,-2.038 3.985,-2.707c1.521,-0.668 3.15,-1.002 4.888,-1.002c1.705,0 3.317,0.334 4.838,1.002c1.52,0.669 2.849,1.571 3.985,2.707c1.137,1.137 2.039,2.465 2.707,3.986c0.669,1.52 1.003,3.133 1.003,4.838l0,2.406l-12.533,0l0,-3.76l8.773,0c0,-1.003 -0.225,-1.955 -0.677,-2.858c-0.451,-0.902 -1.077,-1.687 -1.88,-2.356c-0.802,-0.668 -1.737,-1.203 -2.807,-1.604c-1.069,-0.401 -2.206,-0.602 -3.409,-0.602c-1.236,0 -2.39,0.226 -3.459,0.677c-1.069,0.451 -1.997,1.078 -2.782,1.88c-0.786,0.802 -1.404,1.738 -1.855,2.808c-0.451,1.069 -0.677,2.205 -0.677,3.409c0,1.236 0.226,2.389 0.677,3.459c0.451,1.069 1.069,1.997 1.855,2.782c0.785,0.785 1.713,1.404 2.782,1.855c1.069,0.451 2.223,0.677 3.459,0.677l0,3.759Z" style="fill:#fff;fill-rule:nonzero;"/><path d="M168.726,7.693c-1.203,0 -2.34,0.226 -3.409,0.677c-1.07,0.451 -1.997,1.07 -2.782,1.855c-0.786,0.786 -1.404,1.713 -1.855,2.782c-0.451,1.07 -0.677,2.206 -0.677,3.409l0,12.433l-3.71,0l0,-12.433c0,-1.704 0.326,-3.308 0.978,-4.812c0.651,-1.504 1.545,-2.824 2.682,-3.961c1.136,-1.136 2.456,-2.03 3.96,-2.682c1.504,-0.651 3.108,-0.977 4.813,-0.977l0,3.709Z" style="fill:#fff;fill-rule:nonzero;"/></g><path d="M13.97,20.029l-6.487,12.612l-5.392,0c-1.155,0 -2.091,-0.936 -2.091,-2.091l0,-10.521l13.97,0Zm18.532,-4.06l0,14.581c0,1.155 -0.936,2.091 -2.091,2.091l-17.214,0l19.305,-16.672Zm-13.009,-15.829l-19.493,16.833l0,-14.743c0,-1.154 0.936,-2.09 2.091,-2.09l17.402,0Zm5.611,0l5.307,0c1.155,0 2.091,0.936 2.091,2.09l0,10.684l-13.968,0l6.57,-12.774Z" style="fill:#fff;"/></g></svg>