<?xml version="1.0" encoding="UTF-8" standalone="no"?><!DOCTYPE svg PUBLIC "-//W3C//DTD SVG 1.1//EN" "http://www.w3.org/Graphics/SVG/1.1/DTD/svg11.dtd"><svg width="100%" height="100%" viewBox="0 0 169 33" version="1.1" xmlns="http://www.w3.org/2000/svg" xmlns:xlink="http://www.w3.org/1999/xlink" xml:space="preserve" style="fill-rule:evenodd;clip-rule:evenodd;stroke-linejoin:round;stroke-miterlimit:1.41421;"><g><text x="44.55px" y="28.899px" style="font-family:'DissolveRegular', 'Dissolve Regular';font-size:50.132px;fill:#fff;">s<tspan x="73.877px 103.204px 126.966px 156.293px " y="28.899px 28.899px 28.899px 28.899px ">aver</tspan></text><path d="M13.97,20.029l-6.487,12.612l-5.392,0c-1.155,0 -2.091,-0.936 -2.091,-2.091l0,-10.521l13.97,0Zm18.532,-4.06l0,14.581c0,1.155 -0.936,2.091 -2.091,2.091l-17.214,0l19.305,-16.672Zm-13.009,-15.829l-19.493,16.833l0,-14.743c0,-1.154 0.936,-2.09 2.091,-2.09l17.402,0Zm5.611,0l5.307,0c1.155,0 2.091,0.936 2.091,2.09l0,10.684l-13.968,0l6.57,-12.774Z" style="fill:#fff;"/></g></svg>